<svg width="157" height="24" viewBox="0 0 157 24" fill="none" xmlns="http://www.w3.org/2000/svg">
<g clip-path="url(#clip0_343_46)">
<mask id="mask0_343_46" style="mask-type:luminance" maskUnits="userSpaceOnUse" x="0" y="0" width="157" height="24">
<path d="M156.981 0H0V24H156.981V0Z" fill="white"/>
</mask>
<g mask="url(#mask0_343_46)">
<path d="M32.0145 0.211401C32.551 0.0978215 34.3448 0.140553 35.0011 0.141202L40.8186 0.146943L48.1188 0.14111C50.6439 0.138994 52.4956 -0.185514 54.7273 1.28856C58.5477 3.83862 58.3808 6.85427 58.5155 10.8808C58.6963 16.2893 58.5205 21.9297 52.0635 23.4135C51.336 23.6098 48.859 23.5399 47.9786 23.5389L40.8471 23.5308L35.705 23.5401C34.7621 23.5425 33.7385 23.5742 32.8053 23.5053C29.8502 23.2875 26.9129 20.6421 26.1532 17.7697C26.0243 17.2716 25.9413 16.7624 25.9053 16.2486C25.8237 15.0358 25.9004 12.9926 25.8944 11.7238C25.8883 10.4582 25.8015 7.7877 25.9741 6.64061C26.1015 5.76418 26.3923 4.92052 26.8309 4.15491C28.068 1.97851 29.654 0.852733 32.0145 0.211401ZM51.1494 18.2833C52.758 17.8024 53.5148 16.424 53.4739 14.7641C53.4237 12.7189 53.4898 10.6654 53.4788 8.61935C53.3624 4.80708 50.7527 5.1156 48.0425 5.11484L42.6959 5.11627L36.6679 5.11992C35.6395 5.1201 34.2367 5.0807 33.2313 5.14884C32.4119 5.46242 31.5384 5.92922 31.1561 6.78285C30.9677 7.20336 30.8868 7.70812 30.8457 8.16506C30.7277 9.47212 30.6587 15.3365 31.0349 16.3435C31.3601 17.2138 31.961 17.7942 32.7893 18.1718C33.0883 18.308 33.3705 18.3682 33.6974 18.3872C35.4369 18.4872 50.4383 18.5208 51.1494 18.2833Z" fill="white"/>
<path d="M60.6147 0.218018C62.1749 0.26469 63.9585 0.219671 65.5366 0.218483L65.5389 11.7193C65.5376 13.4373 65.4884 15.2997 65.5745 17.0167C65.5927 17.3814 65.8524 17.7806 66.0514 18.0768C67.0959 18.5635 69.141 18.411 70.3408 18.4113L75.9606 18.4114C81.2952 18.411 86.7275 18.4639 92.0555 18.3905C92.0402 20.1071 92.0417 21.8239 92.0602 23.5405L67.4232 23.5376C63.2532 23.535 60.6444 21.2063 60.6097 16.8429C60.5974 15.3049 60.6073 13.74 60.6074 12.1996L60.6147 0.218018Z" fill="white"/>
<path d="M20.5206 0.233701C21.079 0.183978 22.2367 0.219683 22.8296 0.219697C24.2002 0.207975 25.5709 0.217027 26.9414 0.246847C26.3377 0.877116 23.4788 3.00892 22.6774 3.63622L16.339 8.61231C14.8072 9.80911 13.149 11.0623 11.6713 12.3146C12.3271 12.6683 15.0946 14.951 15.8901 15.5789L25.6902 23.309C25.7124 23.3399 25.717 23.4293 25.722 23.4724C25.3318 23.6219 20.6981 23.5361 19.9671 23.5338C17.2101 21.5198 14.0707 18.8566 11.3601 16.7086L7.69758 13.8098C7.08458 13.3224 6.14623 12.6195 5.61523 12.0805C6.19898 11.5172 6.86739 11.067 7.50454 10.5666C8.38391 9.87589 9.26011 9.18114 10.1348 8.48436L20.5206 0.233701Z" fill="white"/>
<path d="M132.573 0H154.13L154.135 4.98213L140.319 4.9708L136.226 4.97119C135.39 4.97133 134.679 4.96484 133.792 5.02561C132.726 5.09867 130.345 6.14884 131.661 7.53411C132.717 8.64662 134.879 8.48556 136.349 8.48423L144.894 8.47169C148.675 8.46577 152.524 7.91221 155.272 11.1623C156.264 12.3362 156.635 13.3538 156.981 14.8405V17.1125C156.949 17.2069 156.943 17.3006 156.927 17.3992C156.457 20.264 154.045 22.6301 151.318 23.3189C150.109 23.6245 148.593 23.5365 147.328 23.537L143.011 23.5372L126.868 23.5378L126.867 18.3928C131.335 18.5153 136.292 18.4087 140.792 18.4095L146.224 18.4098C148.693 18.4099 151.476 18.9705 152.067 15.8385C151.101 13.023 149.034 13.5782 146.564 13.5834L138.167 13.5899C135.234 13.5907 132.513 13.897 129.842 12.4475C124.654 9.63225 125.344 2.61091 130.655 0.535092C131.317 0.276367 131.901 0.188881 132.573 0Z" fill="white"/>
<path d="M100.218 0H121.781C121.772 1.662 121.779 3.32405 121.8 4.98593C121.595 4.98091 121.391 4.97778 121.185 4.97655L107.875 4.96984L103.895 4.96861C102.373 4.96916 100.512 4.80659 99.2897 5.93408C98.7991 6.38652 98.8911 7.09491 99.3563 7.53206C100.583 8.68425 102.27 8.47807 103.804 8.4745L112.287 8.47098C116.012 8.46896 119.76 7.88673 122.593 10.8205C125.333 13.6578 125.445 18.3524 122.611 21.1718C120.128 23.6415 118.205 23.5361 114.992 23.5372L110.685 23.5375H94.571L94.5696 18.3928C99.6223 18.5319 104.711 18.4064 109.768 18.4063C111.31 18.4063 116.495 18.5851 117.618 18.2781C118.335 18.0824 119.038 17.5993 119.412 16.9382C119.626 16.5594 119.765 16.0847 119.649 15.6508C119.418 14.7868 118.795 14.0635 117.96 13.7691C116.83 13.3714 115.304 13.5861 114.109 13.5882L106.002 13.5867C104.079 13.5896 102.312 13.6681 100.37 13.4232C95.7025 12.8349 92.1749 8.05161 94.7841 3.51958C96.1371 1.17029 97.7897 0.657959 100.218 0Z" fill="white"/>
<path d="M0 0.217529L4.8993 0.224391L4.90543 23.538L0 23.5341V0.217529Z" fill="white"/>
</g>
<path d="M69.8149 5V0.580566H68.1641V-0.0107422H72.1357V0.580566H70.478V5H69.8149ZM72.7988 5V-0.0107422H73.7969L74.9829 3.53711C75.0923 3.86751 75.172 4.11475 75.2222 4.27881C75.2791 4.09652 75.368 3.82878 75.4888 3.47559L76.6885 -0.0107422H77.5806V5H76.9414V0.806152L75.4854 5H74.8872L73.438 0.734375V5H72.7988Z" fill="white"/>
</g>
<defs>
<clipPath id="clip0_343_46">
<rect width="157" height="24" fill="white"/>
</clipPath>
</defs>
</svg>
